<svg xmlns="http://www.w3.org/2000/svg" viewBox="0 0 32 32">
  <rect width="32" height="32" rx="7" fill="#1e1b4b"/>
  <path d="M7.5 11C5 11 3 13.2 3 15.5S5 20 7.5 20c2 0 3.5-1.2 5-3l2.5-3c1.5-1.8 3-3 5-3C22.5 11 25 13.2 25 15.5S22.5 20 20 20c-2 0-3.5-1.2-5-3l-2.5 3" stroke="url(#g)" stroke-width="2.5" stroke-linecap="round" fill="none"/>
  <path d="M16 12v7M14.5 13.5c0-.8.7-1.5 1.5-1.5s1.5.5 1.5 1.2c0 1-1.5 1-1.5 1.8 0 .7.7 1.2 1.5 1.2s1.5-.7 1.5-1.5" stroke="#a5b4fc" stroke-width="1.1" stroke-linecap="round" fill="none"/>
  <defs>
    <linearGradient id="g" x1="3" y1="15.5" x2="25" y2="15.5" gradientUnits="userSpaceOnUse">
      <stop offset="0%" stop-color="#818cf8"/>
      <stop offset="100%" stop-color="#c084fc"/>
    </linearGradient>
  </defs>
</svg>
